<svg width="13" height="10" viewBox="0 0 13 10" fill="none" xmlns="http://www.w3.org/2000/svg">
<path d="M12.3 8.15005V1.85005C12.3 1.26905 11.831 0.800049 11.25 0.800049H1.44301C0.862005 0.800049 0.393005 1.26905 0.393005 1.85005V8.15005C0.393005 8.73105 0.862005 9.20005 1.44301 9.20005H11.25C11.831 9.20005 12.3 8.73105 12.3 8.15005ZM11.383 1.77305C11.614 2.00405 11.488 2.24205 11.362 2.36105L8.52001 4.96505L11.25 7.80705C11.334 7.90505 11.39 8.05905 11.292 8.16405C11.201 8.27605 10.991 8.26905 10.9 8.19905L7.84101 5.58805L6.34301 6.95305L4.85201 5.58805L1.79301 8.19905C1.70201 8.26905 1.49201 8.27605 1.40101 8.16405C1.30301 8.05905 1.35901 7.90505 1.44301 7.80705L4.17301 4.96505L1.33101 2.36105C1.20501 2.24205 1.07901 2.00405 1.31001 1.77305C1.54101 1.54205 1.77901 1.65405 1.97501 1.82205L6.34301 5.35005L10.718 1.82205C10.914 1.65405 11.152 1.54205 11.383 1.77305Z" fill="black"/>
</svg>
