<svg width="9" height="13" viewBox="0 0 9 13" fill="none" xmlns="http://www.w3.org/2000/svg">
<path d="M7.34375 0H1.65625C0.985938 0 0.4375 0.548438 0.4375 1.21875V11.7812C0.4375 12.4516 0.985938 13 1.65625 13H7.34375C8.01406 13 8.5625 12.4516 8.5625 11.7812V1.21875C8.5625 0.548438 8.01406 0 7.34375 0ZM2.875 0.609375H6.125V1.01562H2.875V0.609375ZM4.5 12.1875C4.28451 12.1875 4.07785 12.1019 3.92548 11.9495C3.7731 11.7972 3.6875 11.5905 3.6875 11.375C3.6875 11.1595 3.7731 10.9528 3.92548 10.8005C4.07785 10.6481 4.28451 10.5625 4.5 10.5625C4.71549 10.5625 4.92215 10.6481 5.07452 10.8005C5.2269 10.9528 5.3125 11.1595 5.3125 11.375C5.3125 11.5905 5.2269 11.7972 5.07452 11.9495C4.92215 12.1019 4.71549 12.1875 4.5 12.1875V12.1875ZM7.75 9.75H1.25V1.625H7.75V9.75Z" fill="#484848"/>
</svg>
